<svg width="132" height="132" viewBox="0 0 132 132" fill="none" xmlns="http://www.w3.org/2000/svg">
<path d="M45.2109 80.0273C45.6328 80.0273 45.9844 80.1562 46.2656 80.4141C46.5469 80.6719 46.7109 81 46.7578 81.3984C47.1094 84.0938 47.4609 86.2031 47.8125 87.7266C48.1875 89.2266 48.7617 90.3633 49.5352 91.1367C50.332 91.8867 51.5273 92.4727 53.1211 92.8945C54.7148 93.3164 56.9062 93.7969 59.6953 94.3359C60.0703 94.3828 60.3867 94.5352 60.6445 94.793C60.9258 95.0742 61.0664 95.4258 61.0664 95.8477C61.0664 96.2695 60.9258 96.6094 60.6445 96.8672C60.3867 97.1484 60.0586 97.3125 59.6602 97.3594C56.8945 97.7578 54.7148 98.1445 53.1211 98.5195C51.5508 98.8945 50.3672 99.4805 49.5703 100.277C48.7734 101.074 48.1875 102.246 47.8125 103.793C47.4609 105.34 47.1094 107.484 46.7578 110.227C46.6641 111.188 46.1484 111.668 45.2109 111.668C44.7891 111.668 44.4375 111.527 44.1562 111.246C43.875 110.988 43.7227 110.637 43.6992 110.191C43.418 108.035 43.1367 106.266 42.8555 104.883C42.5977 103.523 42.2227 102.434 41.7305 101.613C41.2617 100.816 40.5938 100.184 39.7266 99.7148C38.8594 99.2461 37.6992 98.8359 36.2461 98.4844C34.793 98.1562 32.9531 97.7812 30.7266 97.3594C29.8125 97.2188 29.3555 96.7148 29.3555 95.8477C29.3555 94.9805 29.8711 94.4766 30.9023 94.3359C33.1055 93.9609 34.9102 93.6211 36.3164 93.3164C37.7461 93.0352 38.8945 92.6602 39.7617 92.1914C40.6289 91.6992 41.2969 91.0312 41.7656 90.1875C42.2344 89.3203 42.5977 88.1953 42.8555 86.8125C43.1367 85.4297 43.418 83.6602 43.6992 81.5039C43.7227 81.0586 43.875 80.707 44.1562 80.4492C44.4375 80.168 44.7891 80.0273 45.2109 80.0273Z" fill="white"/>
<path d="M73.2656 35.0273C73.8984 35.0273 74.4375 35.2266 74.8828 35.625C75.3281 36.0234 75.5977 36.5508 75.6914 37.207C76.2773 41.5898 76.9219 45.293 77.625 48.3164C78.3516 51.3398 79.3008 53.8359 80.4727 55.8047C81.6445 57.75 83.1797 59.3086 85.0781 60.4805C87 61.6289 89.4375 62.543 92.3906 63.2227C95.3672 63.9023 99.0234 64.4766 103.359 64.9453C104.039 65.0156 104.59 65.2734 105.012 65.7188C105.434 66.1641 105.645 66.7031 105.645 67.3359C105.645 67.9688 105.434 68.5195 105.012 68.9883C104.59 69.4336 104.051 69.6914 103.395 69.7617C99.0586 70.2539 95.4023 70.8398 92.4258 71.5195C89.4727 72.1992 87.0352 73.125 85.1133 74.2969C83.2148 75.4453 81.6797 76.9922 80.5078 78.9375C79.3594 80.8828 78.4219 83.3672 77.6953 86.3906C76.9688 89.4141 76.3008 93.1172 75.6914 97.5C75.5977 98.1562 75.3281 98.6836 74.8828 99.082C74.4375 99.5039 73.8984 99.7148 73.2656 99.7148C72.6562 99.7148 72.1289 99.5039 71.6836 99.082C71.2617 98.6836 71.0039 98.1562 70.9102 97.5C70.3242 93.1172 69.668 89.4141 68.9414 86.3906C68.2383 83.3672 67.3008 80.8828 66.1289 78.9375C64.957 76.9688 63.4102 75.3984 61.4883 74.2266C59.5664 73.0547 57.1172 72.1406 54.1406 71.4844C51.1875 70.8047 47.543 70.2305 43.207 69.7617C42.5508 69.6914 42 69.4336 41.5547 68.9883C41.1328 68.5195 40.9219 67.9688 40.9219 67.3359C40.9219 66.7266 41.1328 66.1992 41.5547 65.7539C42 65.2852 42.5508 65.0156 43.207 64.9453C47.5195 64.3594 51.1523 63.7148 54.1055 63.0117C57.0586 62.3086 59.4844 61.3828 61.3828 60.2344C63.2812 59.0859 64.8164 57.5508 65.9883 55.6289C67.1602 53.707 68.1094 51.2578 68.8359 48.2812C69.5859 45.2812 70.2773 41.5898 70.9102 37.207C71.0039 36.5508 71.2617 36.0234 71.6836 35.625C72.1289 35.2266 72.6562 35.0273 73.2656 35.0273Z" fill="white"/>
</svg>
