<svg width="66" height="66" viewBox="40 35 66 66" fill="none" xmlns="http://www.w3.org/2000/svg">
<path d="M73.2656 35.0273C73.8984 35.0273 74.4375 35.2266 74.8828 35.625C75.3281 36.0234 75.5977 36.5508 75.6914 37.207C76.2773 41.5898 76.9219 45.293 77.625 48.3164C78.3516 51.3398 79.3008 53.8359 80.4727 55.8047C81.6445 57.75 83.1797 59.3086 85.0781 60.4805C87 61.6289 89.4375 62.543 92.3906 63.2227C95.3672 63.9023 99.0234 64.4766 103.359 64.9453C104.039 65.0156 104.59 65.2734 105.012 65.7188C105.434 66.1641 105.645 66.7031 105.645 67.3359C105.645 67.9688 105.434 68.5195 105.012 68.9883C104.59 69.4336 104.051 69.6914 103.395 69.7617C99.0586 70.2539 95.4023 70.8398 92.4258 71.5195C89.4727 72.1992 87.0352 73.125 85.1133 74.2969C83.2148 75.4453 81.6797 76.9922 80.5078 78.9375C79.3594 80.8828 78.4219 83.3672 77.6953 86.3906C76.9688 89.4141 76.3008 93.1172 75.6914 97.5C75.5977 98.1562 75.3281 98.6836 74.8828 99.082C74.4375 99.5039 73.8984 99.7148 73.2656 99.7148C72.6562 99.7148 72.1289 99.5039 71.6836 99.082C71.2617 98.6836 71.0039 98.1562 70.9102 97.5C70.3242 93.1172 69.668 89.4141 68.9414 86.3906C68.2383 83.3672 67.3008 80.8828 66.1289 78.9375C64.957 76.9688 63.4102 75.3984 61.4883 74.2266C59.5664 73.0547 57.1172 72.1406 54.1406 71.4844C51.1875 70.8047 47.543 70.2305 43.207 69.7617C42.5508 69.6914 42 69.4336 41.5547 68.9883C41.1328 68.5195 40.9219 67.9688 40.9219 67.3359C40.9219 66.7266 41.1328 66.1992 41.5547 65.7539C42 65.2852 42.5508 65.0156 43.207 64.9453C47.5195 64.3594 51.1523 63.7148 54.1055 63.0117C57.0586 62.3086 59.4844 61.3828 61.3828 60.2344C63.2812 59.0859 64.8164 57.5508 65.9883 55.6289C67.1602 53.707 68.1094 51.2578 68.8359 48.2812C69.5859 45.2812 70.2773 41.5898 70.9102 37.207C71.0039 36.5508 71.2617 36.0234 71.6836 35.625C72.1289 35.2266 72.6562 35.0273 73.2656 35.0273Z" fill="white"/>
</svg>
