<svg width="33" height="33" viewBox="29 80 33 33" fill="none" xmlns="http://www.w3.org/2000/svg">
<path d="M45.2109 80.0273C45.6328 80.0273 45.9844 80.1562 46.2656 80.4141C46.5469 80.6719 46.7109 81 46.7578 81.3984C47.1094 84.0938 47.4609 86.2031 47.8125 87.7266C48.1875 89.2266 48.7617 90.3633 49.5352 91.1367C50.332 91.8867 51.5273 92.4727 53.1211 92.8945C54.7148 93.3164 56.9062 93.7969 59.6953 94.3359C60.0703 94.3828 60.3867 94.5352 60.6445 94.793C60.9258 95.0742 61.0664 95.4258 61.0664 95.8477C61.0664 96.2695 60.9258 96.6094 60.6445 96.8672C60.3867 97.1484 60.0586 97.3125 59.6602 97.3594C56.8945 97.7578 54.7148 98.1445 53.1211 98.5195C51.5508 98.8945 50.3672 99.4805 49.5703 100.277C48.7734 101.074 48.1875 102.246 47.8125 103.793C47.4609 105.34 47.1094 107.484 46.7578 110.227C46.6641 111.188 46.1484 111.668 45.2109 111.668C44.7891 111.668 44.4375 111.527 44.1562 111.246C43.875 110.988 43.7227 110.637 43.6992 110.191C43.418 108.035 43.1367 106.266 42.8555 104.883C42.5977 103.523 42.2227 102.434 41.7305 101.613C41.2617 100.816 40.5938 100.184 39.7266 99.7148C38.8594 99.2461 37.6992 98.8359 36.2461 98.4844C34.793 98.1562 32.9531 97.7812 30.7266 97.3594C29.8125 97.2188 29.3555 96.7148 29.3555 95.8477C29.3555 94.9805 29.8711 94.4766 30.9023 94.3359C33.1055 93.9609 34.9102 93.6211 36.3164 93.3164C37.7461 93.0352 38.8945 92.6602 39.7617 92.1914C40.6289 91.6992 41.2969 91.0312 41.7656 90.1875C42.2344 89.3203 42.5977 88.1953 42.8555 86.8125C43.1367 85.4297 43.418 83.6602 43.6992 81.5039C43.7227 81.0586 43.875 80.707 44.1562 80.4492C44.4375 80.168 44.7891 80.0273 45.2109 80.0273Z" fill="white"/>
</svg>
